<svg viewBox="0 0 459 282" fill="none" xmlns="http://www.w3.org/2000/svg">
<path fill-rule="evenodd" clip-rule="evenodd" d="M96.7523 141.895C92.2929 134.649 94.6057 125.138 100.242 118.764C104.634 113.796 110.931 110.963 117.456 112.146L122.427 113.047C131.085 114.617 137.207 122.052 141.818 129.545C153.156 147.969 179.701 152.225 201.108 139.052C211.725 132.518 219.084 122.923 222.422 112.664C224.439 106.465 227.938 100.525 233.729 97.5322C239.325 94.6407 245.943 95.0544 251.947 96.9578C266.466 101.561 283.96 99.5666 299.265 90.148C299.801 89.8178 300.331 89.4811 300.853 89.1381C313.072 81.1184 327.205 74.1343 341.586 76.7412L354.652 79.1098C364.377 80.8726 371.041 89.5603 376.221 97.9775C380.944 105.652 384.981 114.676 382.41 123.313L378.927 135.016C374.654 149.371 361.533 158.905 348.297 165.915C347.032 166.584 345.778 167.301 344.538 168.064C342.794 169.137 341.12 170.276 339.519 171.475C328.322 179.857 314.846 186.724 301.084 184.229L291.713 182.53C281.219 180.628 274.193 170.987 268.604 161.904C257.266 143.48 230.721 139.224 209.315 152.398C187.908 165.571 179.746 191.186 191.084 209.61C202.422 228.034 228.967 232.29 250.373 219.116C260.287 213.015 271.603 207.811 283.057 209.887L290.758 211.283C304.944 213.855 314.193 227.3 321.75 239.579C335.922 262.609 369.103 267.929 395.861 251.462C422.619 234.995 432.822 202.977 418.649 179.947C411.067 167.625 403.189 153.254 407.317 139.387L408.322 136.008C412.149 123.153 424.087 114.513 435.51 107.484C456.917 94.3103 465.079 68.6955 453.741 50.2717C442.403 31.8479 415.858 27.5917 394.451 40.7653C383.75 47.351 371.574 53.2512 359.209 51.0099L351.698 49.6483C337.665 47.1044 328.616 33.6395 321.141 21.4934C307.536 -0.615223 275.682 -5.72263 249.994 10.0857C233.927 19.9736 224.077 35.7025 222.283 51.5072C221.693 56.7026 219.47 61.7584 215.177 64.7441C210.426 68.0491 204.234 68.0494 198.682 66.4143C186.743 62.8986 172.524 64.6564 160.049 72.3333C157.079 74.1607 154.365 76.2276 151.922 78.4815C146.354 83.6175 139.016 87.1286 131.563 85.7776C122.32 84.1021 116.178 75.6309 113.378 66.6644C112.283 63.158 110.751 59.7587 108.763 56.5277C93.8667 32.3224 58.9922 26.7306 30.8682 44.0381C2.74429 61.3456 -7.97912 94.9984 6.91684 119.204C11.9448 127.374 19.2489 133.423 27.8014 137.187C29.4931 137.932 29.6859 140.444 28.1118 141.413C4.14 156.165 -5.65019 183.793 6.24476 203.122C18.1397 222.451 47.2155 226.161 71.1872 211.409C71.4171 211.267 71.6456 211.125 71.8728 210.981C74.1488 209.54 77.2203 210.113 78.6319 212.407C79.5423 213.886 79.5218 215.746 78.6811 217.267C70.751 231.605 70.0053 248.373 78.2777 261.815C91.3289 283.023 121.884 287.922 146.525 272.758C171.166 257.594 180.562 228.109 167.511 206.902C162.726 199.127 155.589 193.544 147.254 190.338C134.153 185.299 120.085 179.81 112.729 167.856L96.7523 141.895Z" fill="black"/>
</svg>
