<svg  viewBox="0 0 520 251" fill="none" xmlns="http://www.w3.org/2000/svg">
<path fill-rule="evenodd" clip-rule="evenodd" d="M104.7 40.2546C96.7284 40.2546 89.527 35.9475 83.3678 30.8866C74.5163 23.6134 62.5025 19.1439 49.2705 19.1439C22.0591 19.1439 -9.30862e-06 38.0456 -8.28943e-06 61.362C-7.27023e-06 84.6784 22.0591 103.58 49.2705 103.58C62.5002 103.58 74.512 99.1122 83.3631 91.8413C89.5241 86.7802 96.7269 82.4726 104.7 82.4726C112.673 82.4726 119.876 86.7802 126.037 91.8413C134.888 99.1122 146.9 103.58 160.13 103.58C160.322 103.58 160.513 103.579 160.705 103.577C171.97 103.467 183.964 109.521 189.514 119.324C190.364 120.826 191.271 122.312 192.234 123.777C196.446 130.19 195.976 139.009 190.05 143.882C186.016 147.201 180.446 147.732 175.492 146.074C168.829 143.844 161.577 142.62 153.992 142.62C121.338 142.62 94.8672 165.302 94.8672 193.282C94.8672 221.261 121.338 243.943 153.992 243.943C186.645 243.943 213.116 221.261 213.116 193.282C213.116 189.792 212.705 186.385 211.921 183.094C210.017 175.106 211.181 166.051 217.524 160.835C222.66 156.611 229.789 155.995 235.969 158.45C252.639 165.071 271.071 167.423 289.005 165.48C292.756 165.074 296 168.446 296 172.219C296 177.516 297.138 182.584 299.216 187.255C300.77 190.746 300.218 194.989 297.267 197.417C295.274 199.056 292.585 199.492 290.066 198.932C287.337 198.326 284.465 198.002 281.5 198.002C263.551 198.002 249 209.866 249 224.502C249 239.137 263.551 251.002 281.5 251.002C299.449 251.002 314 239.137 314 224.502C314 223.704 314.328 222.933 314.944 222.426L320.693 217.698C325.202 213.99 331.267 213.02 337.045 213.852C339.72 214.237 342.468 214.437 345.27 214.437C372.482 214.437 394.541 195.536 394.541 172.219C394.541 159.726 388.208 148.5 378.142 140.77C369.423 134.075 364.544 120.013 368.585 109.79C371.133 103.344 377 98.852 383.929 99.0557L384.826 99.0821C391.145 99.268 396.514 103.445 400.197 108.583C402.067 111.193 404.301 113.668 406.897 115.955C417.984 125.721 429.2 137.634 429.295 152.409L429.315 155.414C429.366 163.339 426.22 170.864 423.558 178.329C418.478 192.58 422.376 208.704 435.358 220.139C454.332 236.852 485.526 237.221 505.031 220.963C524.536 204.705 524.966 177.977 505.992 161.263C498.052 154.27 487.973 150.138 477.505 148.889C469.637 147.95 462.527 142.003 462.476 134.08C462.441 128.637 465.874 123.884 470.534 121.073C472.643 119.801 474.662 118.37 476.57 116.78C496.075 100.522 496.505 73.7931 477.531 57.0799C458.558 40.3667 427.364 39.9977 407.859 56.2558C405.751 58.0131 403.865 59.8928 402.203 61.869C398.015 66.8486 392.222 70.7508 385.718 70.5595C378.038 70.3336 371.737 64.684 369.029 57.4942C364.595 45.7194 357.011 34.6162 346.261 25.1469C308.927 -7.73855 247.55 -8.46456 209.171 23.5254C202.77 28.8607 193.05 29.0896 185.657 25.2449C178.212 21.3732 169.475 19.1439 160.13 19.1439C146.898 19.1439 134.884 23.6134 126.033 30.8866C119.873 35.9475 112.672 40.2546 104.7 40.2546Z" fill="black"/>
</svg>
