<svg  viewBox="0 0 463 281" fill="none" xmlns="http://www.w3.org/2000/svg">
<path fill-rule="evenodd" clip-rule="evenodd" d="M371 117.508C371 115.354 369.506 113.5 367.428 112.931C350.915 108.413 331.984 107.951 318.762 118.825L317.224 120.09C303.274 131.563 301.241 151.552 302.203 169.587C303.063 185.724 297.057 201.036 283.85 212.045C256.088 235.185 207.02 230.547 174.254 201.685C173.528 201.046 172.605 200.67 171.638 200.641L115.291 198.984C112.518 198.903 109.667 199.856 107.309 201.319C99.7214 206.024 96.5282 216.779 98.024 225.581C100.223 238.519 95.3988 252.147 83.6253 261.961C64.1202 278.219 32.9268 277.85 13.9529 261.137C-5.02093 244.424 -4.59033 217.695 14.9147 201.437C17.8816 198.964 21.1189 196.876 24.5425 195.171C37.8316 188.555 50.7876 178.105 59.7148 166.244C64.3707 160.058 69.2433 151.655 69.1934 143.912L69.1771 141.386C69.0964 128.852 60.5913 118.307 52.695 108.517C52.5283 108.311 52.3619 108.104 52.1959 107.898C47.4023 101.952 44.5977 94.7546 44.5977 87C44.5977 66.5655 64.0733 50 88.0977 50C99.7109 50 112.057 48.8789 121.026 41.5023L146.916 20.2094C149.231 18.3058 151.219 16.0491 153.207 13.7919C154.341 12.5042 155.475 11.2163 156.671 9.9938C162.625 3.90323 171.803 3.4677e-06 182.098 3.34493e-06C200.047 3.13089e-06 214.598 11.8645 214.598 26.5C214.598 41.1355 200.047 53 182.098 53C181.724 53 181.349 52.9998 180.973 52.9995C168.699 52.9922 155.152 52.9841 145.737 60.7272L138.987 66.2785C133.086 71.132 131.598 79.3591 131.598 87C131.598 100.962 122.506 113.117 109.084 119.417C105.221 121.23 102.37 124.907 102.397 129.173C102.435 135.009 107.696 139.291 113.501 139.886C119.323 140.482 124.449 142.43 128.302 145.823C134.759 151.511 136.378 160.153 133.756 169.426C131.909 175.957 135.813 183.904 142.597 184.104C149.484 184.306 153.896 176.449 151.353 170.046C142.261 147.152 146.561 123.057 165.193 107.526C185.861 90.2993 218.336 88.4675 247.103 100.564C263.588 107.496 283.38 108.377 297.192 97.0175L307.715 88.3626C316.371 81.2438 318.598 69.2073 318.598 58C318.598 25.9675 350.833 0 390.598 0C430.362 0 462.598 25.9675 462.598 58C462.598 77.5245 450.622 94.7958 432.264 105.307C422.611 110.834 415 120.237 415 131.361V142.825C415 151.017 419.257 158.472 424.912 164.398C436.69 176.743 444 193.957 444 213C444 250.555 415.57 281 380.5 281C345.43 281 317 250.555 317 213C317 185.039 332.759 161.02 355.284 150.572C363.903 146.575 371 138.769 371 129.268V117.508Z" fill="black"/>
</svg>
