<svg xmlns="http://www.w3.org/2000/svg"  viewBox="0 0 31 26" fill="none">
<path d="M12.7624 1.22898L8.03561 12.9515C9.61122 13.2666 10.8402 14.0229 11.7225 15.2204C12.6679 16.3548 13.1406 17.7414 13.1406 19.38C13.1406 21.2077 12.5103 22.7518 11.2499 24.0123C10.0524 25.2098 8.50829 25.8085 6.61756 25.8085C4.66381 25.8085 3.05668 25.2098 1.7962 24.0123C0.598732 22.7518 0 21.2077 0 19.38C0 17.7414 0.504195 16.0082 1.51259 14.1805L8.22468 0L12.7624 1.22898ZM30.6299 1.22898L25.903 12.9515C27.4156 13.2666 28.6446 14.0229 29.59 15.2204C30.5353 16.3548 31.008 17.7414 31.008 19.38C31.008 21.2077 30.3778 22.7518 29.1173 24.0123C27.9198 25.2098 26.3757 25.8085 24.485 25.8085C22.5312 25.8085 20.9241 25.2098 19.6636 24.0123C18.4661 22.7518 17.8674 21.2077 17.8674 19.38C17.8674 17.8044 18.3401 16.0712 19.2855 14.1805L25.9976 0L30.6299 1.22898Z" fill="black"/>
</svg>