<svg viewBox="0 0 128 109" fill="none" xmlns="http://www.w3.org/2000/svg">
<path fill-rule="evenodd" clip-rule="evenodd" d="M23.8738 29.2341C23.8969 31.0454 25.5376 35.4736 30.8864 37.961C34.2362 39.5188 36.2984 39.9871 37.9463 40.3613C39.5876 40.734 40.818 41.0134 42.5003 42.183C45.6554 44.3763 46.313 46.3075 45.8263 52.8922C45.8032 53.2056 45.7868 53.5126 45.7769 53.8134C43.6716 54.6965 41.3572 55.4675 37.96 55.973C35.0067 56.4124 32.0995 56.063 29.0993 55.7023C23.5305 55.033 17.6408 54.325 10.5391 58.5516C-3.09034 66.6632 -1.2629 81.4265 3.60783 85.0024C6.92747 87.4395 11.6327 89.9307 21.3229 85.1742C27.4552 82.1642 30.3735 76.9634 33.043 72.2061C35.4895 67.8463 37.7269 63.8589 42.0377 62.2715C44.149 61.4939 45.8986 61.226 47.2981 61.3334C48.3758 63.3776 49.9183 64.8435 51.5841 65.9184C51.5768 66.0579 51.5644 66.1987 51.5467 66.3407C50.0828 67.7275 48.4445 68.9259 46.7705 70.1503C42.2434 73.4617 37.4555 76.9639 35.1495 84.8999C30.7239 100.131 42.1353 109.674 48.1358 108.963C49.5238 108.799 51.0327 108.53 52.5705 107.852C55.1092 107.394 59.6722 105.39 62.0916 101.486C63.3432 100.177 65.2722 95.8664 63.1948 90.3454C62.9578 89.7153 62.7259 89.141 62.4996 88.6145C62.3606 85.427 61.6208 82.4012 60.9166 79.5213C60.3231 77.0942 59.755 74.7707 59.5932 72.5415C60.4102 71.579 61.5185 70.5116 62.9819 69.2244C66.1969 66.3967 67.6833 63.5354 68.1545 60.841C69.9667 61.448 71.3658 63.4153 71.7645 65.9935C71.9395 67.1249 72.0078 68.814 72.0893 70.8289C72.421 79.034 72.9711 92.6414 81.835 95.9879C92.293 99.9361 96.9259 95.0492 98.7123 93.1648C98.8119 93.0598 98.9025 92.9641 98.9849 92.8799C100.546 91.2824 103.135 86.1426 102.131 81.0967C102.153 79.2855 100.621 74.8184 95.3343 72.201C92.0236 70.5617 89.9735 70.0432 88.3352 69.6288C86.7035 69.216 85.4803 68.9066 83.8271 67.6964C80.7265 65.4265 80.1164 63.4798 80.7639 56.909C80.7946 56.5969 80.8185 56.291 80.8357 55.9912C82.9615 55.1601 85.2937 54.4462 88.7013 54.024C91.6645 53.6569 94.5622 54.0773 97.5528 54.5112C103.104 55.3166 108.974 56.1683 116.177 52.1166C130.001 44.3407 128.535 29.5371 123.753 25.8432C120.494 23.3256 115.851 20.7202 106.047 25.2383C99.8434 28.0975 96.7988 33.2253 94.0137 37.916C91.4614 42.2147 89.1271 46.1462 84.7788 47.6277C82.6508 48.3528 80.8963 48.5781 79.5004 48.4372C78.4727 46.3651 76.9652 44.8607 75.3248 43.7448C75.3727 43.1222 75.5255 42.4749 75.7805 41.8273C76.9491 40.7761 78.2068 39.8081 79.4856 38.8238L79.4857 38.8237L79.4858 38.8237C83.9305 35.4026 88.6314 31.7844 90.7427 23.7944C91.4099 21.2691 91.6516 18.9085 91.5631 16.7307C91.6613 15.0907 91.4316 13.4646 90.7718 11.8861C88.4032 3.86655 81.384 -0.547862 77.1719 0.0557425C74.2875 0.469075 70.889 1.34879 67.8767 5.43412C67.0614 6.15281 66.3115 6.98393 65.6898 7.93439C64.6903 8.93002 63.2356 11.7354 63.5583 15.559C62.6573 20.7193 63.9318 25.4295 65.1148 29.8014C65.8684 32.5864 66.5849 35.2342 66.6781 37.7735C65.9555 38.4909 65.0744 39.2744 64.0108 40.1647C60.605 43.0157 59.0579 45.9483 58.5788 48.7192C56.6385 48.2593 55.0829 46.2709 54.6009 43.5903C54.3983 42.4636 54.2887 40.7766 54.158 38.7643C53.6258 30.5698 52.7431 16.9799 43.8 13.8512C33.2486 10.1598 28.7366 15.1586 26.9967 17.0861C26.8998 17.1935 26.8115 17.2913 26.7312 17.3776C25.2099 19.0127 22.7471 24.2143 23.8738 29.2341Z" fill="#D9D9D9"/>
</svg>
